<svg xmlns="http://www.w3.org/2000/svg" viewBox="0 0 1200 400">
  <defs>
    <radialGradient id="halo" cx="50%" cy="50%" r="50%">
      <stop offset="48%" stop-color="#000000" stop-opacity="0"/>
      <stop offset="58%" stop-color="#f9df86" stop-opacity=".35"/>
      <stop offset="64%" stop-color="#ffc53d"/>
      <stop offset="72%" stop-color="#f59e24" stop-opacity=".58"/>
      <stop offset="100%" stop-color="#000000" stop-opacity="0"/>
    </radialGradient>
    <radialGradient id="burst" cx="50%" cy="50%" r="50%">
      <stop offset="0" stop-color="#ffffff"/>
      <stop offset=".18" stop-color="#fff1b8"/>
      <stop offset=".42" stop-color="#f9b62f" stop-opacity=".78"/>
      <stop offset="1" stop-color="#000000" stop-opacity="0"/>
    </radialGradient>
    <linearGradient id="sweep" x1="0" y1="1" x2="1" y2="0">
      <stop offset="0" stop-color="#000000" stop-opacity="0"/>
      <stop offset=".36" stop-color="#f59e24" stop-opacity=".18"/>
      <stop offset=".49" stop-color="#fff3bf"/>
      <stop offset=".58" stop-color="#ffb733" stop-opacity=".8"/>
      <stop offset="1" stop-color="#000000" stop-opacity="0"/>
    </linearGradient>
    <filter id="warmGlow" x="-40%" y="-40%" width="180%" height="180%">
      <feGaussianBlur stdDeviation="4" result="blur"/>
      <feColorMatrix in="blur" values="1 0 .08 0 0  .18 .9 .08 0 0  0 .04 .18 0 0  0 0 0 .86 0" result="glow"/>
      <feMerge>
        <feMergeNode in="glow"/>
        <feMergeNode in="SourceGraphic"/>
      </feMerge>
    </filter>
    <filter id="softBlur" x="-25%" y="-25%" width="150%" height="150%">
      <feGaussianBlur stdDeviation="2.4"/>
    </filter>
  </defs>
  <rect width="1200" height="400" fill="#000000"/>
  <g filter="url(#warmGlow)">
    <circle cx="200" cy="205" r="104" fill="none" stroke="url(#halo)" stroke-width="44"/>
    <circle cx="200" cy="205" r="88" fill="none" stroke="#ffe08a" stroke-width="4" opacity=".74"/>
    <circle cx="200" cy="205" r="116" fill="none" stroke="#a96b1e" stroke-width="2" opacity=".42"/>
    <g fill="#ffcc4d">
      <circle cx="104" cy="140" r="3"/>
      <circle cx="115" cy="270" r="2.5"/>
      <circle cx="302" cy="135" r="2.2"/>
      <circle cx="318" cy="254" r="3.4"/>
      <circle cx="154" cy="102" r="2"/>
      <circle cx="244" cy="313" r="2.7"/>
      <circle cx="80" cy="205" r="1.8"/>
      <circle cx="331" cy="202" r="1.8"/>
    </g>
  </g>
  <g transform="translate(400 0)" filter="url(#warmGlow)">
    <circle cx="200" cy="203" r="86" fill="url(#burst)" opacity=".86"/>
    <g stroke="#ffe9a3" stroke-linecap="round">
      <path d="M200 74v255" stroke-width="4"/>
      <path d="M72 203h256" stroke-width="4"/>
      <path d="M112 112l176 178" stroke-width="3"/>
      <path d="M288 112L112 290" stroke-width="3"/>
      <path d="M154 82l92 242" stroke-width="2"/>
      <path d="M246 82l-92 242" stroke-width="2"/>
      <path d="M82 156l238 96" stroke-width="2"/>
      <path d="M320 156L82 252" stroke-width="2"/>
    </g>
    <g fill="#fff4c6">
      <circle cx="200" cy="203" r="18"/>
      <circle cx="146" cy="138" r="6"/>
      <circle cx="268" cy="156" r="5"/>
      <circle cx="130" cy="238" r="4"/>
      <circle cx="254" cy="274" r="5"/>
      <circle cx="306" cy="214" r="3"/>
      <circle cx="104" cy="188" r="3"/>
    </g>
  </g>
  <g transform="translate(800 0)" filter="url(#warmGlow)">
    <path d="M55 319C160 244 242 142 353 57c-72 95-146 188-256 279Z" fill="url(#sweep)"/>
    <path d="M95 297C185 232 257 143 335 72" fill="none" stroke="#fff4c0" stroke-width="10" stroke-linecap="round" opacity=".88"/>
    <path d="M68 329C168 248 242 152 358 48" fill="none" stroke="#f59e24" stroke-width="4" stroke-linecap="round" opacity=".8"/>
    <path d="M114 316C215 242 272 161 370 87" fill="none" stroke="#ffcb58" stroke-width="2" stroke-linecap="round" opacity=".7"/>
    <path d="M30 344C115 286 210 220 310 108" fill="none" stroke="#fff4c0" stroke-width="2" stroke-linecap="round" opacity=".32" filter="url(#softBlur)"/>
  </g>
</svg>
